<svg width="165" height="165" viewBox="0 0 165 165" fill="none" xmlns="http://www.w3.org/2000/svg">
<g clip-path="url(#clip0_78_284)">
<rect width="165" height="165" fill="black"/>
<path d="M20.4734 107L35.9751 67.7686H22.7443V58.9481H48.9096L33.6054 97.62H47.5602V107H20.4734ZM59.4691 107V58.9481H69.2441V107H59.4691ZM91.3229 107L77.6314 58.9481H87.3405L93.0014 80.7031C93.55 82.8315 94.0107 85.1024 94.3837 87.516C94.7787 89.9295 95.0859 92.4638 95.3053 95.1187C95.4589 92.6612 95.7112 90.2477 96.0623 87.878C96.4353 85.4864 96.896 83.1606 97.4446 80.9006L102.974 58.9481H112.946L99.3535 107H91.3229ZM120.873 107V58.9481H141.081V67.8344H130.154V77.5436H140.061V86.364H130.154V97.62H141.081V107H120.873ZM140.159 42.3604L130.319 54.5708H125.908L132.063 42.3604H140.159Z" fill="white"/>
</g>
<defs>
<clipPath id="clip0_78_284">
<rect width="165" height="165" fill="white"/>
</clipPath>
</defs>
</svg>
